<mxfile host="Electron" agent="Mozilla/5.0 (Windows NT 10.0; Win64; x64) AppleWebKit/537.36 (KHTML, like Gecko) draw.io/26.2.2 Chrome/134.0.6998.178 Electron/35.1.2 Safari/537.36" version="26.2.2">
  <diagram name="Seite-1" id="RxlfN1Qa4sSS2J_LyOva">
    <mxGraphModel dx="1428" dy="841" grid="1" gridSize="10" guides="1" tooltips="1" connect="1" arrows="1" fold="1" page="1" pageScale="1" pageWidth="827" pageHeight="1169" math="0" shadow="0">
      <root>
        <mxCell id="0" />
        <mxCell id="1" parent="0" />
        <mxCell id="2lS1o2VxJF_GZJ1FsymH-1" value="Beratung KFZ" style="ellipse;whiteSpace=wrap;html=1;" vertex="1" parent="1">
          <mxGeometry x="480" y="240" width="120" height="80" as="geometry" />
        </mxCell>
        <mxCell id="2lS1o2VxJF_GZJ1FsymH-15" style="edgeStyle=orthogonalEdgeStyle;rounded=0;orthogonalLoop=1;jettySize=auto;html=1;entryX=0.5;entryY=1;entryDx=0;entryDy=0;dashed=1;" edge="1" parent="1" source="2lS1o2VxJF_GZJ1FsymH-2" target="2lS1o2VxJF_GZJ1FsymH-1">
          <mxGeometry relative="1" as="geometry" />
        </mxCell>
        <mxCell id="2lS1o2VxJF_GZJ1FsymH-16" style="edgeStyle=orthogonalEdgeStyle;rounded=0;orthogonalLoop=1;jettySize=auto;html=1;dashed=1;" edge="1" parent="1" source="2lS1o2VxJF_GZJ1FsymH-2" target="2lS1o2VxJF_GZJ1FsymH-3">
          <mxGeometry relative="1" as="geometry" />
        </mxCell>
        <mxCell id="2lS1o2VxJF_GZJ1FsymH-17" style="edgeStyle=orthogonalEdgeStyle;rounded=0;orthogonalLoop=1;jettySize=auto;html=1;dashed=1;" edge="1" parent="1" source="2lS1o2VxJF_GZJ1FsymH-2" target="2lS1o2VxJF_GZJ1FsymH-5">
          <mxGeometry relative="1" as="geometry" />
        </mxCell>
        <mxCell id="2lS1o2VxJF_GZJ1FsymH-2" value="Probefahrt&lt;div&gt;durchführen&lt;/div&gt;" style="ellipse;whiteSpace=wrap;html=1;" vertex="1" parent="1">
          <mxGeometry x="480" y="480" width="120" height="80" as="geometry" />
        </mxCell>
        <mxCell id="2lS1o2VxJF_GZJ1FsymH-42" style="edgeStyle=orthogonalEdgeStyle;rounded=0;orthogonalLoop=1;jettySize=auto;html=1;endArrow=none;startFill=0;" edge="1" parent="1" source="2lS1o2VxJF_GZJ1FsymH-3" target="2lS1o2VxJF_GZJ1FsymH-7">
          <mxGeometry relative="1" as="geometry">
            <Array as="points">
              <mxPoint x="680" y="720" />
              <mxPoint x="120" y="720" />
              <mxPoint x="120" y="160" />
            </Array>
          </mxGeometry>
        </mxCell>
        <mxCell id="2lS1o2VxJF_GZJ1FsymH-44" style="edgeStyle=orthogonalEdgeStyle;rounded=0;orthogonalLoop=1;jettySize=auto;html=1;endArrow=none;startFill=0;shadow=1;fillColor=#dae8fc;strokeColor=#6c8ebf;" edge="1" parent="1" source="2lS1o2VxJF_GZJ1FsymH-3">
          <mxGeometry relative="1" as="geometry">
            <mxPoint x="720" y="160" as="targetPoint" />
            <Array as="points">
              <mxPoint x="720" y="720" />
              <mxPoint x="1081" y="720" />
            </Array>
          </mxGeometry>
        </mxCell>
        <mxCell id="2lS1o2VxJF_GZJ1FsymH-3" value="Mechaniker&lt;div&gt;informieren&lt;/div&gt;" style="ellipse;whiteSpace=wrap;html=1;" vertex="1" parent="1">
          <mxGeometry x="640" y="480" width="120" height="80" as="geometry" />
        </mxCell>
        <mxCell id="2lS1o2VxJF_GZJ1FsymH-5" value="Temp Versicherung&lt;div&gt;aschließen&lt;/div&gt;" style="ellipse;whiteSpace=wrap;html=1;" vertex="1" parent="1">
          <mxGeometry x="320" y="480" width="120" height="80" as="geometry" />
        </mxCell>
        <mxCell id="2lS1o2VxJF_GZJ1FsymH-21" style="edgeStyle=orthogonalEdgeStyle;rounded=0;orthogonalLoop=1;jettySize=auto;html=1;entryX=0.5;entryY=1;entryDx=0;entryDy=0;dashed=1;" edge="1" parent="1" source="2lS1o2VxJF_GZJ1FsymH-6" target="2lS1o2VxJF_GZJ1FsymH-5">
          <mxGeometry relative="1" as="geometry" />
        </mxCell>
        <mxCell id="2lS1o2VxJF_GZJ1FsymH-6" value="Verischerungs-&lt;div&gt;angebot&lt;/div&gt;" style="ellipse;whiteSpace=wrap;html=1;" vertex="1" parent="1">
          <mxGeometry x="320" y="600" width="120" height="80" as="geometry" />
        </mxCell>
        <mxCell id="2lS1o2VxJF_GZJ1FsymH-24" style="rounded=0;orthogonalLoop=1;jettySize=auto;html=1;endArrow=none;startFill=0;" edge="1" parent="1" source="2lS1o2VxJF_GZJ1FsymH-7">
          <mxGeometry relative="1" as="geometry">
            <mxPoint x="540" y="240" as="targetPoint" />
          </mxGeometry>
        </mxCell>
        <mxCell id="2lS1o2VxJF_GZJ1FsymH-41" style="edgeStyle=orthogonalEdgeStyle;rounded=0;orthogonalLoop=1;jettySize=auto;html=1;entryX=0.5;entryY=0;entryDx=0;entryDy=0;endArrow=none;startFill=0;" edge="1" parent="1" source="2lS1o2VxJF_GZJ1FsymH-7" target="2lS1o2VxJF_GZJ1FsymH-31">
          <mxGeometry relative="1" as="geometry">
            <Array as="points">
              <mxPoint x="380" y="80" />
              <mxPoint x="860" y="80" />
            </Array>
          </mxGeometry>
        </mxCell>
        <mxCell id="2lS1o2VxJF_GZJ1FsymH-7" value="Kund" style="shape=umlActor;verticalLabelPosition=bottom;verticalAlign=top;html=1;outlineConnect=0;" vertex="1" parent="1">
          <mxGeometry x="365" y="120" width="30" height="60" as="geometry" />
        </mxCell>
        <mxCell id="2lS1o2VxJF_GZJ1FsymH-20" style="edgeStyle=orthogonalEdgeStyle;rounded=0;orthogonalLoop=1;jettySize=auto;html=1;endArrow=none;startFill=0;" edge="1" parent="1" source="2lS1o2VxJF_GZJ1FsymH-8" target="2lS1o2VxJF_GZJ1FsymH-5">
          <mxGeometry relative="1" as="geometry" />
        </mxCell>
        <mxCell id="2lS1o2VxJF_GZJ1FsymH-8" value="Versicherungsberater" style="shape=umlActor;verticalLabelPosition=bottom;verticalAlign=top;html=1;outlineConnect=0;" vertex="1" parent="1">
          <mxGeometry x="200" y="490" width="30" height="60" as="geometry" />
        </mxCell>
        <mxCell id="2lS1o2VxJF_GZJ1FsymH-19" style="edgeStyle=orthogonalEdgeStyle;rounded=0;orthogonalLoop=1;jettySize=auto;html=1;entryX=1;entryY=0.5;entryDx=0;entryDy=0;endArrow=none;startFill=0;" edge="1" parent="1" source="2lS1o2VxJF_GZJ1FsymH-9" target="2lS1o2VxJF_GZJ1FsymH-3">
          <mxGeometry relative="1" as="geometry" />
        </mxCell>
        <mxCell id="2lS1o2VxJF_GZJ1FsymH-38" style="edgeStyle=orthogonalEdgeStyle;rounded=0;orthogonalLoop=1;jettySize=auto;html=1;entryX=0.5;entryY=1;entryDx=0;entryDy=0;endArrow=none;startFill=0;" edge="1" parent="1" source="2lS1o2VxJF_GZJ1FsymH-9" target="2lS1o2VxJF_GZJ1FsymH-32">
          <mxGeometry relative="1" as="geometry" />
        </mxCell>
        <mxCell id="2lS1o2VxJF_GZJ1FsymH-9" value="Mechaniker" style="shape=umlActor;verticalLabelPosition=bottom;verticalAlign=top;html=1;outlineConnect=0;" vertex="1" parent="1">
          <mxGeometry x="845" y="490" width="30" height="60" as="geometry" />
        </mxCell>
        <mxCell id="2lS1o2VxJF_GZJ1FsymH-23" style="rounded=0;orthogonalLoop=1;jettySize=auto;html=1;entryX=0.5;entryY=0;entryDx=0;entryDy=0;endArrow=none;startFill=0;" edge="1" parent="1" source="2lS1o2VxJF_GZJ1FsymH-10" target="2lS1o2VxJF_GZJ1FsymH-1">
          <mxGeometry relative="1" as="geometry" />
        </mxCell>
        <mxCell id="2lS1o2VxJF_GZJ1FsymH-10" value="Verkäufer" style="shape=umlActor;verticalLabelPosition=bottom;verticalAlign=top;html=1;outlineConnect=0;" vertex="1" parent="1">
          <mxGeometry x="685" y="120" width="30" height="60" as="geometry" />
        </mxCell>
        <mxCell id="2lS1o2VxJF_GZJ1FsymH-25" style="edgeStyle=orthogonalEdgeStyle;rounded=0;orthogonalLoop=1;jettySize=auto;html=1;dashed=1;" edge="1" parent="1" source="2lS1o2VxJF_GZJ1FsymH-22" target="2lS1o2VxJF_GZJ1FsymH-1">
          <mxGeometry relative="1" as="geometry" />
        </mxCell>
        <mxCell id="2lS1o2VxJF_GZJ1FsymH-36" style="edgeStyle=orthogonalEdgeStyle;rounded=0;orthogonalLoop=1;jettySize=auto;html=1;dashed=1;" edge="1" parent="1" source="2lS1o2VxJF_GZJ1FsymH-22" target="2lS1o2VxJF_GZJ1FsymH-32">
          <mxGeometry relative="1" as="geometry">
            <Array as="points">
              <mxPoint x="700" y="400" />
            </Array>
          </mxGeometry>
        </mxCell>
        <mxCell id="2lS1o2VxJF_GZJ1FsymH-39" style="edgeStyle=orthogonalEdgeStyle;rounded=0;orthogonalLoop=1;jettySize=auto;html=1;entryX=0;entryY=0.5;entryDx=0;entryDy=0;dashed=1;" edge="1" parent="1" source="2lS1o2VxJF_GZJ1FsymH-22" target="2lS1o2VxJF_GZJ1FsymH-31">
          <mxGeometry relative="1" as="geometry" />
        </mxCell>
        <mxCell id="2lS1o2VxJF_GZJ1FsymH-22" value="Kaufvertrag anvesiert" style="ellipse;whiteSpace=wrap;html=1;" vertex="1" parent="1">
          <mxGeometry x="640" y="240" width="120" height="80" as="geometry" />
        </mxCell>
        <mxCell id="2lS1o2VxJF_GZJ1FsymH-26" value="&amp;lt;&amp;lt;include&amp;gt;&amp;gt;" style="text;html=1;align=center;verticalAlign=middle;resizable=0;points=[];autosize=1;strokeColor=none;fillColor=none;" vertex="1" parent="1">
          <mxGeometry x="575" y="470" width="90" height="30" as="geometry" />
        </mxCell>
        <mxCell id="2lS1o2VxJF_GZJ1FsymH-27" value="&amp;lt;&amp;lt;include&amp;gt;&amp;gt;" style="text;html=1;align=center;verticalAlign=middle;resizable=0;points=[];autosize=1;strokeColor=none;fillColor=none;" vertex="1" parent="1">
          <mxGeometry x="420" y="470" width="90" height="30" as="geometry" />
        </mxCell>
        <mxCell id="2lS1o2VxJF_GZJ1FsymH-29" value="&amp;lt;&amp;lt;extend&amp;gt;&amp;gt;" style="text;html=1;align=center;verticalAlign=middle;resizable=0;points=[];autosize=1;strokeColor=none;fillColor=none;" vertex="1" parent="1">
          <mxGeometry x="575" y="230" width="90" height="30" as="geometry" />
        </mxCell>
        <mxCell id="2lS1o2VxJF_GZJ1FsymH-30" value="&amp;lt;&amp;lt;extend&amp;gt;&amp;gt;" style="text;html=1;align=center;verticalAlign=middle;resizable=0;points=[];autosize=1;strokeColor=none;fillColor=none;" vertex="1" parent="1">
          <mxGeometry x="540" y="380" width="90" height="30" as="geometry" />
        </mxCell>
        <mxCell id="2lS1o2VxJF_GZJ1FsymH-31" value="Rabattverhandelung" style="ellipse;whiteSpace=wrap;html=1;" vertex="1" parent="1">
          <mxGeometry x="800" y="240" width="120" height="80" as="geometry" />
        </mxCell>
        <mxCell id="2lS1o2VxJF_GZJ1FsymH-32" value="Service Leistung&lt;div&gt;reservieren&lt;/div&gt;" style="ellipse;whiteSpace=wrap;html=1;" vertex="1" parent="1">
          <mxGeometry x="800" y="360" width="120" height="80" as="geometry" />
        </mxCell>
        <mxCell id="2lS1o2VxJF_GZJ1FsymH-40" style="edgeStyle=orthogonalEdgeStyle;rounded=0;orthogonalLoop=1;jettySize=auto;html=1;entryX=1;entryY=0.5;entryDx=0;entryDy=0;endArrow=none;startFill=0;" edge="1" parent="1" source="2lS1o2VxJF_GZJ1FsymH-33" target="2lS1o2VxJF_GZJ1FsymH-31">
          <mxGeometry relative="1" as="geometry" />
        </mxCell>
        <mxCell id="2lS1o2VxJF_GZJ1FsymH-33" value="Fialleiter" style="shape=umlActor;verticalLabelPosition=bottom;verticalAlign=top;html=1;outlineConnect=0;" vertex="1" parent="1">
          <mxGeometry x="1010" y="250" width="30" height="60" as="geometry" />
        </mxCell>
        <mxCell id="2lS1o2VxJF_GZJ1FsymH-45" value="&amp;lt;&amp;lt;include&amp;gt;&amp;gt;" style="text;html=1;align=center;verticalAlign=middle;resizable=0;points=[];autosize=1;strokeColor=none;fillColor=none;" vertex="1" parent="1">
          <mxGeometry x="290" y="570" width="90" height="30" as="geometry" />
        </mxCell>
      </root>
    </mxGraphModel>
  </diagram>
</mxfile>
